<svg xmlns="http://www.w3.org/2000/svg" viewBox="0 0 37.234108 44.192665" width="24" height="24">
          <g transform="translate(-98.509916,-52.280436)">
            <path style="fill:#9955ff;fill-opacity:1;fill-rule:nonzero;stroke:none;stroke-width:0.03527778" d="m 103.96245,57.733102 c 7.27004,-7.269692 19.05811,-7.27075 26.32851,0 7.27075,7.270396 7.27075,19.05776 0,26.328121 l -11.87979,11.879511 c -0.70979,0.709824 -1.85879,0.709824 -2.56928,0 L 103.96245,84.061223 c -7.270046,-7.270361 -7.270046,-19.057725 0,-26.328121"></path>
            <path style="fill:#eff4f4" d="m 107.23869,80.73146 c 5.46065,5.460894 14.31537,5.460894 19.77602,0 5.461,-5.461423 5.461,-14.314381 0,-19.775734 -5.46065,-5.461352 -14.31537,-5.461352 -19.77531,0 -5.461,5.461353 -5.461,14.315017 -7.1e-4,19.775734"></path>
          </g>
          <rect y="18.87501" x="13.450394" height="10.143215" width="2.1166685" style="fill:#9955ff"></rect><rect y="18.826801" x="22.446228" height="10.191423" width="2.1166666" style="fill:#9955ff"></rect><g style="fill:#9955ff" transform="matrix(0.02399731,0,0,-0.02257098,0.993981,84.412193)"><path d="M 982.48474,3187.6206 750.85987,3375.9728 519.235,3187.6206 v -296.4549 h 463.24974 z m -97.48472,-240.1202 h -285 v 225 h 285 z" style="fill:#9955ff"></path><path transform="matrix(2.8701967,0,0,-2.7577192,150.41474,4571.1683)" style="fill:#9955ff" d="m 292.51838,496.30429 h 33.9698 l -117.58777,-97.907 -117.587759,97.907 h 33.969799 c 0,0 54.69736,-46.19798 83.61796,-70.71061 30.62811,26.01142 83.61797,70.71061 83.61797,70.71061 z"></path></g><rect y="26.677233" x="14.108088" height="2.340992" width="8.3381405" style="fill:#9955ff"></rect><rect y="18.457136" x="9.664897" height="10.561089" width="4.4431911" style="fill:#9955ff"></rect><rect style="fill:#9955ff" width="4.3089681" height="10.561089" x="23.432316" y="18.460623"></rect>
        </svg>