<?xml version="1.0" encoding="UTF-8" standalone="no" ?>
<!DOCTYPE svg PUBLIC "-//W3C//DTD SVG 1.1//EN" "http://www.w3.org/Graphics/SVG/1.1/DTD/svg11.dtd">
<svg xmlns="http://www.w3.org/2000/svg" xmlns:xlink="http://www.w3.org/1999/xlink" version="1.1" width="49" height="73" viewBox="132 89 49 73" xml:space="preserve">
<desc>Created with Fabric.js 4.6.0</desc>
<defs>
</defs>
<g transform="matrix(1 0 0 1 156.81 125.6)" id="rdZvoD5tMQnNZGje_eTLe"  >
<path style="stroke: none; stroke-width: 1; stroke-dasharray: none; stroke-linecap: butt; stroke-dashoffset: 0; stroke-linejoin: miter; stroke-miterlimit: 4; fill: rgb(0,0,0); fill-rule: nonzero; opacity: 1;" vector-effect="non-scaling-stroke"  transform=" translate(0, 0)" d="M -1.27723 -30.54946 C -0.5479700000000001 -30.630489999999998 1.46039 -30.55525 2.51377 -30.40477 C 5.54078 -29.988049999999998 8.509920000000001 -28.8305 10.877120000000001 -27.14625 C 12.75815 -25.803479999999997 14.51185 -23.92824 15.756220000000003 -21.931449999999998 C 17.56201 -19.02019 18.430180000000004 -15.970029999999998 18.430180000000004 -12.520509999999998 C 18.430180000000004 -11.264559999999998 18.372300000000003 -10.564239999999998 18.163940000000004 -9.400889999999999 C 17.834040000000005 -7.554589999999998 17.463620000000002 -6.570669999999998 16.080340000000003 -3.786739999999998 C 14.633400000000004 -0.8870599999999982 14.164590000000004 -0.09412999999999805 11.224390000000003 4.402980000000001 C 6.9877300000000035 10.8853 5.008300000000003 14.50266 3.2372400000000034 19.01135 C 2.1086300000000033 21.87631 1.4140900000000034 24.27245 0.6327400000000036 27.95927 C 0.12341000000000368 30.36699 0.0713200000000036 30.60429 0.05396000000000367 30.58114 C 0.042390000000003675 30.569570000000002 -0.14860999999999633 29.68982 -0.38011999999999635 28.62487 C -1.0746599999999964 25.36634 -1.5608299999999962 23.55477 -2.3479699999999966 21.245440000000002 C -3.2334999999999967 18.64094 -4.281089999999996 16.198490000000003 -5.664369999999996 13.536110000000003 C -7.198139999999997 10.584340000000003 -8.182059999999996 8.940610000000003 -11.058589999999995 4.518740000000003 C -13.663089999999995 0.5193800000000031 -14.033509999999996 -0.08833999999999698 -15.584639999999995 -2.889629999999997 C -16.736409999999996 -4.973239999999997 -17.216789999999996 -6.003459999999997 -17.645089999999996 -7.346229999999997 C -18.229649999999996 -9.169379999999997 -18.484319999999997 -11.009899999999996 -18.420649999999995 -12.960379999999997 C -18.281749999999995 -17.063919999999996 -17.014219999999995 -20.519229999999997 -14.456019999999995 -23.754599999999996 C -13.877239999999995 -24.489649999999997 -12.245079999999994 -26.104439999999997 -11.492669999999995 -26.683219999999995 C -9.710029999999994 -28.066499999999994 -7.765329999999995 -29.079359999999994 -5.606489999999995 -29.744959999999995 C -4.645709999999995 -30.045929999999995 -3.0540699999999945 -30.370049999999996 -2.1164499999999946 -30.462649999999996 C -1.7518199999999946 -30.497379999999996 -1.3698199999999945 -30.537889999999997 -1.2772199999999945 -30.549469999999996 z M -11.00001 -11.5 C -11.00001 -5.428 -6.07201 -0.5 -0.000009999999999621423 -0.5 C 6.07199 -0.5 10.99999 -5.428 10.99999 -11.5 C 10.99999 -17.572 6.07199 -22.5 -0.000009999999999621423 -22.5 C -6.07201 -22.5 -11.00001 -17.572 -11.00001 -11.5 z M -0.00001 -17.5 C 3.3119899999999998 -17.5 5.99999 -14.812 5.99999 -11.5 C 5.99999 -8.188 3.31199 -5.5 -0.000009999999999621423 -5.5 C -3.3120099999999995 -5.5 -6.00001 -8.188 -6.00001 -11.5 C -6.00001 -14.812 -3.3120099999999995 -17.5 -0.000009999999999621423 -17.5 z" stroke-linecap="round" />
</g>
</svg>