<svg xmlns="http://www.w3.org/2000/svg" viewBox="0 0 37.234108 44.192665" width="24" height="24">
          <g transform="translate(-98.509916,-52.280436)">
            <path style="fill:#800000;fill-opacity:1;fill-rule:nonzero;stroke:none;stroke-width:0.03527778" d="m 103.96245,57.733102 c 7.27004,-7.269692 19.05811,-7.27075 26.32851,0 7.27075,7.270396 7.27075,19.05776 0,26.328121 l -11.87979,11.879511 c -0.70979,0.709824 -1.85879,0.709824 -2.56928,0 L 103.96245,84.061223 c -7.270046,-7.270361 -7.270046,-19.057725 0,-26.328121"></path>
            <path style="fill:#eff4f4" d="m 107.23869,80.73146 c 5.46065,5.460894 14.31537,5.460894 19.77602,0 5.461,-5.461423 5.461,-14.314381 0,-19.775734 -5.46065,-5.461352 -14.31537,-5.461352 -19.77531,0 -5.461,5.461353 -5.461,14.315017 -7.1e-4,19.775734"></path>
          </g>
          <g transform="translate(-105.81652,-49.933376)"><path d="m 124.95195,55.46788 -7.67291,7.905393 h 2.38125 l 5.29166,-5.55625 5.29167,5.55625 2.35778,0.0059 z" style="fill:#800000"></path><path d="m 119.92487,63.553075 2.11667,-2.065925 v 18.851566 h -2.11667 z" style="fill:#800000"></path><path d="m 129.84442,63.582587 -1.98205,-2.062363 v 18.819071 l 1.98812,0.02209 z" style="fill:#800000"></path><rect y="66.778816" x="122.30611" height="1.6536446" width="5.2916636" style="fill:#800000"></rect><rect y="63.669964" x="122.30611" height="1.5875013" width="5.2916632" style="fill:#800000"></rect></g>
        </svg>