<svg xmlns="http://www.w3.org/2000/svg" viewBox="0 0 37.234108 44.192665" width="24" height="24">
          <g transform="translate(-98.509916,-52.280436)">
            <path style="fill:#333333;fill-opacity:1;fill-rule:nonzero;stroke:none;stroke-width:0.03527778" d="m 103.96245,57.733102 c 7.27004,-7.269692 19.05811,-7.27075 26.32851,0 7.27075,7.270396 7.27075,19.05776 0,26.328121 l -11.87979,11.879511 c -0.70979,0.709824 -1.85879,0.709824 -2.56928,0 L 103.96245,84.061223 c -7.270046,-7.270361 -7.270046,-19.057725 0,-26.328121"></path>
            <path style="fill:#eff4f4" d="m 107.23869,80.73146 c 5.46065,5.460894 14.31537,5.460894 19.77602,0 5.461,-5.461423 5.461,-14.314381 0,-19.775734 -5.46065,-5.461352 -14.31537,-5.461352 -19.77531,0 -5.461,5.461353 -5.461,14.315017 -7.1e-4,19.775734"></path>
          </g>
          <g transform="matrix(0.04605033,0,0,0.04522715,9.4570869,9.2647563)"><path style="fill:#333333" d="M 260.08091,58.277763 9.3684853,2.7280576 9.7502673,409.08484 400.69424,409.3962 392.68501,200.2552 Z"></path></g><rect y="16.664757" x="12.760019" height="4.119945" width="4.1724973" style="fill:#eff4f4"></rect><rect style="fill:#eff4f4" id="rect2246-3" width="4.1724973" height="4.119945" x="20.088993" y="16.723083"></rect><rect y="22.347836" x="16.526724" height="5.6939707" width="4.1724973" style="fill:#eff4f4"></rect>
        </svg>