<svg xmlns="http://www.w3.org/2000/svg" viewBox="0 0 37.234108 44.192665" width="24" height="24">
          <g transform="translate(-98.509916,-52.280436)">
            <path style="fill:#1D52FF;fill-opacity:1;fill-rule:nonzero;stroke:none;stroke-width:0.03527778" d="m 103.96245,57.733102 c 7.27004,-7.269692 19.05811,-7.27075 26.32851,0 7.27075,7.270396 7.27075,19.05776 0,26.328121 l -11.87979,11.879511 c -0.70979,0.709824 -1.85879,0.709824 -2.56928,0 L 103.96245,84.061223 c -7.270046,-7.270361 -7.270046,-19.057725 0,-26.328121"></path>
            <path style="fill:#eff4f4" d="m 107.23869,80.73146 c 5.46065,5.460894 14.31537,5.460894 19.77602,0 5.461,-5.461423 5.461,-14.314381 0,-19.775734 -5.46065,-5.461352 -14.31537,-5.461352 -19.77531,0 -5.461,5.461353 -5.461,14.315017 -7.1e-4,19.775734"></path>
          </g>
          <g transform="translate(-88.47764,-26.1756)"><path style="fill:#1D52FF" d="m 113.71274,46.00131 c -0.34293,-1.950407 -1.42114,-3.759166 -2.57182,-5.490985 -1.07794,-1.622206 -2.23451,-3.209392 -3.46241,-4.758798 -0.17832,-0.224966 -0.35759,-0.449336 -0.53897,-0.672662 -0.18138,0.223326 -0.36065,0.447696 -0.53897,0.672662 -1.2279,1.549406 -2.38447,3.136592 -3.46231,4.758798 -1.15073,1.731819 -2.22899,3.540578 -2.57192,5.490985 -0.34289,1.95037 0.14845,4.086472 1.80376,5.519813 1.20991,1.047595 3.00664,1.693814 4.76944,1.693814 1.7628,0 3.55953,-0.646219 4.76944,-1.693814 1.6554,-1.433341 2.1467,-3.569443 1.80376,-5.519813"></path></g>
        </svg>