<svg xmlns="http://www.w3.org/2000/svg" viewBox="0 0 37.234108 44.192665" width="24" height="24">
          <g transform="translate(-98.509916,-52.280436)">
            <path style="fill:#000080;fill-opacity:1;fill-rule:nonzero;stroke:none;stroke-width:0.03527778" d="m 103.96245,57.733102 c 7.27004,-7.269692 19.05811,-7.27075 26.32851,0 7.27075,7.270396 7.27075,19.05776 0,26.328121 l -11.87979,11.879511 c -0.70979,0.709824 -1.85879,0.709824 -2.56928,0 L 103.96245,84.061223 c -7.270046,-7.270361 -7.270046,-19.057725 0,-26.328121"></path>
            <path style="fill:#eff4f4" d="m 107.23869,80.73146 c 5.46065,5.460894 14.31537,5.460894 19.77602,0 5.461,-5.461423 5.461,-14.314381 0,-19.775734 -5.46065,-5.461352 -14.31537,-5.461352 -19.77531,0 -5.461,5.461353 -5.461,14.315017 -7.1e-4,19.775734"></path>
          </g>
          <g transform="translate(-92.003634,-50.630219)"><g transform="matrix(0.03527778,0,0,-0.03527778,84.368141,180.44381)"><path transform="matrix(2.8701967,0,0,-2.7577192,150.41474,4571.1683)" style="fill:#000080" d="m 255.93553,588.772 h 54.87428 L 208.90041,398.39729 106.99102,588.772 h 54.87428 l 47.03511,-141.42122 z"></path></g><rect style="fill:#000080" width="13.040935" height="1.7135603" x="104.47648" y="74.748978"></rect></g>
        </svg>